HIERARCHY
ROOT Hips
{
  OFFSET -32.5998 29.0326 120.673
  CHANNELS 6 Xposition Yposition Zposition Zrotation Xrotation Yrotation
  JOINT LeftUpLeg
  {
    OFFSET 8.64259 1.95398 -2.38835
    CHANNELS 3 Zrotation Xrotation Yrotation
    JOINT LeftLeg
    {
      OFFSET 43.7702 0 0
      CHANNELS 3 Zrotation Xrotation Yrotation
      JOINT LeftFoot
      {
        OFFSET 40.6238 0 0
        CHANNELS 3 Zrotation Xrotation Yrotation
        JOINT LeftToeBase
        {
          OFFSET 12.7242 0 0
          CHANNELS 3 Zrotation Xrotation Yrotation
          End Site
          {
            OFFSET 0 0 0
          }
        }
      }
    }
  }
  JOINT RightUpLeg
  {
    OFFSET -8.2249 1.95398 -2.59336
    CHANNELS 3 Zrotation Xrotation Yrotation
    JOINT RightLeg
    {
      OFFSET 43.5653 0 0
      CHANNELS 3 Zrotation Xrotation Yrotation
      JOINT RightFoot
      {
        OFFSET 40.6238 0 0
        CHANNELS 3 Zrotation Xrotation Yrotation
        JOINT RightToeBase
        {
          OFFSET 12.7242 0 0
          CHANNELS 3 Zrotation Xrotation Yrotation
          End Site
          {
            OFFSET 0 0 0
          }
        }
      }
    }
  }
  JOINT Spine
  {
    OFFSET 0.165834 0.87714 6.61349
    CHANNELS 3 Zrotation Xrotation Yrotation
    JOINT Spine1
    {
      OFFSET 7.38963 1.71661e-005 0
      CHANNELS 3 Zrotation Xrotation Yrotation
      JOINT Spine2
      {
        OFFSET 11.9445 1.14441e-005 0
        CHANNELS 3 Zrotation Xrotation Yrotation
        JOINT Spine3
        {
          OFFSET 14.7254 4.19617e-005 0
          CHANNELS 3 Zrotation Xrotation Yrotation
          JOINT Spine4
          {
            OFFSET 10.9679 0 0
            CHANNELS 3 Zrotation Xrotation Yrotation
            JOINT RightShoulder
            {
              OFFSET 2.46616 -1.6653 3.69651
              CHANNELS 3 Zrotation Xrotation Yrotation
              JOINT RightArm
              {
                OFFSET 13.0012 0 0
                CHANNELS 3 Zrotation Xrotation Yrotation
                JOINT RightForeArm
                {
                  OFFSET 28.7848 1.62311e-005 0
                  CHANNELS 3 Zrotation Xrotation Yrotation
                  JOINT RightHand
                  {
                    OFFSET 26.5688 1.62095e-005 0
                    CHANNELS 3 Zrotation Xrotation Yrotation
                    End Site
                    {
                      OFFSET 0 0 0
                    }
                  }
                }
              }
            }
            JOINT LeftShoulder
            {
              OFFSET 2.38034 -1.29275 -3.7523
              CHANNELS 3 Zrotation Xrotation Yrotation
              JOINT LeftArm
              {
                OFFSET 16.3182 6.07031e-005 0
                CHANNELS 3 Zrotation Xrotation Yrotation
                JOINT LeftForeArm
                {
                  OFFSET 27.0901 0 0
                  CHANNELS 3 Zrotation Xrotation Yrotation
                  JOINT LeftHand
                  {
                    OFFSET 24.5451 1.51738e-005 0
                    CHANNELS 3 Zrotation Xrotation Yrotation
                    End Site
                    {
                      OFFSET 0 0 0
                    }
                  }
                }
              }
            }
            JOINT Neck
            {
              OFFSET 5.0226 -0.0266342 0
              CHANNELS 3 Zrotation Xrotation Yrotation
              JOINT Head
              {
                OFFSET 6.69364 2.86102e-005 0
                CHANNELS 3 Zrotation Xrotation Yrotation
                End Site
                {
                  OFFSET 0 0 0
                }
              }
            }
          }
        }
      }
    }
  }
}
MOTION
Frames:	15
Frame Time:	0.0416667
36.369 36.004 6.27069 -136.095 -81.7457 -135.029 -36.8304 57.9934 -10.6069 -147.561 -6.31902 8.14443 108.795 26.1391 -4.05441 10.3928 -15.0095 10.5518 60.4856 47.1338 -178.336 -143.112 21.5599 -9.04283 101.916 -28.8121 -8.1449 28.4276 -1.02258 4.80477 0.882403 12.9071 -90.3061 1.06202 1.64519 -0.538793 -10.608 1.61988 -0.610704 -33.1515 1.73104 -0.0193102 -13.1389 1.73104 -0.0192962 89.12 -18.4824 -114.176 6.18476 -12.9926 -58.1069 -19.2865 -42.952 -24.3987 -25.9328 -4.70412 15.5222 -91.7588 -32.5088 70.9231 13.3047 17.8422 -83.7734 1.408 26.5964 -0.374403 9.38832 1.56658 11.6157 18.3858 -3.94409 -3.2104 -1.77824 -2.82114 2.42583 
36.5238 36.0075 6.11067 -146.034 -82.0764 -144.539 -39.3323 58.9977 -10.7108 -147.103 -7.63276 8.1066 109.302 26.0032 -4.90968 9.44676 -15.5283 10.4419 61.003 47.6584 179.182 -143.328 20.6374 -8.97343 104.839 -30.2856 -6.45741 25.6047 0.728455 2.55397 0.794993 12.964 -90.4176 0.948798 1.42889 -0.761136 -10.7216 1.394 -0.823307 -33.2627 1.59156 -0.29643 -13.25 1.59157 -0.296422 89.1738 -18.2818 -114.17 4.3677 -13.703 -59.4325 -16.8668 -42.276 -22.0036 -23.8612 -3.89162 13.575 -91.7265 -32.2371 70.8828 13.1814 17.9739 -83.7672 1.75025 25.0275 -0.696859 12.9256 2.03359 11.2703 18.9515 -2.51215 -1.48108 -0.840987 -1.97852 -0.176161 
36.5169 35.9835 6.11376 -145.912 -82.0357 -144.503 -39.2553 59.0418 -10.699 -147.227 -7.47642 8.08416 109.125 25.5636 -5.531 10.0383 -16.2578 12.0246 60.9057 47.6747 179.395 -143.36 20.6241 -8.9665 104.514 -30.1658 -6.71587 25.8696 0.602427 2.61022 0.78686 12.9548 -90.3944 0.967137 1.42139 -0.71664 -10.7033 1.38847 -0.778524 -33.2443 1.57104 -0.256236 -13.2317 1.57104 -0.256248 88.9868 -18.4855 -114.487 4.462 -14.0157 -58.6306 -16.9045 -40.3372 -21.8732 -19.9525 -2.98492 11.9289 -91.7278 -32.0022 70.7945 12.3363 17.9293 -83.4098 2.03091 27.267 -1.09296 8.6183 1.30292 10.0897 18.6066 -2.69386 -2.0052 -0.633592 -1.99402 0.265211 
36.532 36.0147 6.12675 -145.824 -81.9785 -144.327 -40.1279 59.0625 -9.83425 -146.807 -7.85567 8.15816 111.216 27.8568 -4.18764 8.62287 -15.0697 9.08592 61.0028 47.6946 179.293 -143.316 20.7624 -8.98057 104.513 -30.053 -6.51786 25.8944 0.608831 2.54785 0.80152 12.962 -90.4119 0.952931 1.44411 -0.749572 -10.7175 1.40972 -0.81241 -33.2587 1.60261 -0.280811 -13.246 1.6026 -0.280825 89.0203 -18.3612 -114.484 4.80382 -14.6665 -58.1425 -17.374 -39.3005 -22.2702 -17.4394 -2.38367 10.7683 -91.7911 -32.2296 70.7622 12.7303 17.8807 -83.5221 1.94798 27.7143 -0.962953 8.95682 1.57658 12.2986 18.6613 -2.66334 -1.85428 -0.572533 -2.00852 0.264487 
36.5188 35.978 6.13354 -145.521 -81.9351 -144.097 -39.7474 59.0456 -10.122 -147.027 -7.6766 8.13015 110.454 27.0306 -4.6286 10.5183 -15.0974 10.794 61.0773 47.7021 179.356 -143.333 20.6956 -8.96192 104.401 -30.181 -6.88283 26.0267 0.505563 2.71917 0.801838 12.9675 -90.4079 0.94204 1.44621 -0.741554 -10.7283 1.41217 -0.804503 -33.2696 1.6022 -0.272545 -13.257 1.6022 -0.272541 89.0857 -18.343 -114.341 4.98415 -14.4301 -58.1971 -18.4542 -41.3681 -23.303 -17.0016 -2.33622 10.8479 -91.8054 -32.2278 70.7353 12.66 17.8306 -83.5218 1.84385 27.4388 -0.796409 8.7617 1.52861 12.1275 18.7983 -2.63233 -1.80785 -0.621836 -1.98783 0.355285 
36.5112 35.9959 6.11206 -146.046 -82.0296 -144.513 -39.1904 59.1537 -10.7992 -147.184 -7.529 8.07563 109.178 25.6363 -5.43953 11.9121 -15.271 12.3403 61.0905 47.5602 179.211 -143.289 20.6834 -8.99336 104.534 -30.2701 -6.81735 25.8454 0.609331 2.62297 0.79598 12.9667 -90.4378 0.943577 1.42329 -0.800544 -10.7269 1.38668 -0.862428 -33.2678 1.59807 -0.335687 -13.2551 1.59807 -0.335699 89.1488 -18.1517 -114.307 6.19423 -13.5087 -58.0923 -19.2912 -42.5555 -23.7334 -19.3442 -2.92477 12.3689 -91.8567 -32.2746 70.6587 12.5797 17.7747 -83.4359 2.0069 27.8039 -1.0524 8.74052 1.51547 12.0268 18.7722 -2.63231 -1.44709 -0.593301 -2.10591 -0.0212378 
36.5116 35.9855 6.13158 -145.916 -81.9941 -144.458 -39.8297 59.0518 -10.1228 -146.997 -7.81801 8.13341 110.664 27.0552 -4.78504 10.2371 -15.1434 10.6639 61.0753 47.6259 179.262 -143.309 20.7996 -8.98661 104.527 -30.1734 -6.71217 26.0529 0.530528 2.58593 0.801956 12.9823 -90.4392 0.912536 1.43475 -0.80229 -10.7579 1.39805 -0.864669 -33.2989 1.60953 -0.333909 -13.2863 1.60953 -0.333913 89.2435 -18.0667 -114.135 5.53086 -13.8322 -58.2272 -18.6052 -41.1224 -23.2684 -18.2384 -2.61517 11.4203 -91.8324 -32.5343 70.7978 12.963 17.7364 -83.79 1.87042 26.9324 -0.943547 8.9679 1.41814 10.7438 19.0341 -2.6298 -1.34785 -0.877696 -2.13098 -0.090108 
36.4926 35.9696 6.15635 -146.761 -82.0001 -145.368 -40.1657 59.1433 -9.84675 -146.926 -7.84862 8.13506 111.074 27.3965 -4.72616 8.32163 -15.615 9.57428 60.9836 47.6768 179.276 -143.355 20.7591 -8.98058 104.372 -30.2589 -6.99687 26.0549 0.492086 2.72453 0.773279 12.9805 -90.4325 0.916113 1.38 -0.791341 -10.7544 1.34385 -0.851316 -33.2949 1.55403 -0.33992 -13.2823 1.55402 -0.339941 89.1394 -18.15 -114.331 5.48555 -13.907 -58.1278 -18.9938 -41.8979 -23.7747 -18.4605 -2.55747 10.9313 -91.8361 -32.51 70.7826 12.658 17.7328 -83.5297 2.00884 28.4161 -0.972232 9.09616 1.70695 13.3624 18.7112 -2.62309 -1.33525 -0.711371 -2.13699 -0.254091 
36.4625 36.0177 6.17103 -146.395 -82.0237 -145.108 -39.6654 59.1213 -10.1853 -147.211 -7.49244 8.08906 109.49 25.8405 -5.44618 11.7224 -15.1634 12.0049 61.1659 47.771 179.155 -143.319 20.8387 -8.96528 104.6 -30.2201 -6.77669 26.203 0.475482 2.5516 0.781085 12.9964 -90.4532 0.884344 1.38792 -0.830742 -10.7862 1.35002 -0.891033 -33.3267 1.57342 -0.375127 -13.314 1.57342 -0.375128 89.4468 -17.7716 -113.829 5.2173 -13.689 -58.8122 -17.8703 -41.3543 -22.6968 -20.7986 -3.2623 12.944 -91.9402 -33.1217 70.8157 13.5869 17.6055 -83.9288 2.13721 28.4832 -1.8517 10.1469 1.54696 10.4757 19.3453 -2.56576 -0.880739 -1.18553 -2.21006 -0.22946 
36.4415 36.0182 6.18726 -146.037 -82.0461 -144.758 -39.5587 59.2873 -10.2484 -147.169 -7.49968 8.07975 109.742 25.8511 -5.76705 12.4347 -15.0237 12.4824 61.1641 47.7945 179.207 -143.285 21.0639 -8.98461 104.801 -30.2776 -6.54278 26.0835 0.482718 2.71393 0.773447 12.9677 -90.4169 0.941521 1.3862 -0.761207 -10.7289 1.35135 -0.821494 -33.2696 1.55087 -0.309329 -13.2569 1.55087 -0.309343 89.0731 -18.2067 -114.453 3.80894 -14.6727 -58.7265 -17.0864 -40.3144 -22.1096 -17.3367 -2.4057 11.0208 -91.8525 -32.6089 70.7887 12.7034 17.8355 -83.5031 1.97612 28.4128 -0.941614 8.6933 1.63976 13.3275 18.6512 -2.71081 -1.51465 -0.660539 -2.16323 -0.022805 
36.4473 36.0664 6.18775 -145.425 -82.0277 -144.208 -40.0528 59.1429 -9.73741 -147.041 -7.55552 8.11297 110.263 26.6039 -5.10137 10.3688 -15.3715 11.0576 61.1349 47.8858 179.29 -143.31 20.9235 -8.95056 104.664 -30.1682 -6.49511 26.1144 0.487655 2.64652 0.784792 12.9813 -90.4185 0.914374 1.40834 -0.762939 -10.7561 1.37341 -0.824181 -33.2969 1.57251 -0.304318 -13.2843 1.57251 -0.304317 89.3638 -18.0803 -113.841 4.08339 -14.8469 -59.2918 -16.2253 -39.1515 -21.1343 -17.4045 -2.36869 10.6846 -91.7958 -32.7261 70.9345 12.9903 17.743 -83.7572 2.02494 27.7724 -1.12243 8.95566 1.58791 12.4297 19.1329 -2.67553 -1.22024 -1.00561 -2.2155 -0.230426 
36.439 36.0591 6.18261 -145.685 -82.0613 -144.433 -39.6683 59.2094 -10.181 -147.189 -7.52161 8.0788 109.411 25.6073 -5.70093 10.5271 -15.7344 11.7259 61.1265 47.8775 179.21 -143.302 21.1434 -8.95658 104.997 -30.1623 -6.0881 25.918 0.586357 2.59302 0.778451 12.9803 -90.4314 0.916503 1.39081 -0.788724 -10.754 1.35476 -0.84918 -33.2946 1.56354 -0.334187 -13.282 1.56354 -0.33419 89.4291 -17.9494 -113.765 3.21817 -15.1074 -59.3536 -16.3505 -38.7973 -21.6007 -17.5481 -2.46951 11.213 -91.8317 -32.7225 70.868 13.0764 17.7183 -83.7337 1.81707 27.1501 -0.931378 8.89912 1.47859 11.431 18.9549 -2.70233 -1.12281 -0.849556 -2.27601 -0.347261 
36.4553 36.0429 6.21725 -145.502 -82.0618 -144.223 -40.3519 59.1313 -9.55183 -146.777 -7.91334 8.16339 111.267 27.7033 -4.45855 8.91644 -14.9213 9.11172 61.0818 47.8073 179.206 -143.307 21.0572 -8.97901 104.883 -30.2167 -6.33493 26.085 0.451506 2.82672 0.779004 12.9807 -90.4371 0.915786 1.38973 -0.79989 -10.7547 1.3532 -0.860282 -33.2953 1.56587 -0.34516 -13.2827 1.56587 -0.345173 89.475 -17.8757 -113.7 4.45815 -14.8714 -58.8334 -16.9109 -38.1886 -22.0415 -18.0485 -2.64437 11.8608 -91.8869 -32.5587 70.7077 13.0833 17.6482 -83.5977 1.94394 26.9457 -1.05795 8.84049 1.4436 11.1629 18.9848 -2.64797 -1.00782 -0.864301 -2.26388 -0.61497 
36.4469 36.0584 6.20582 -145.379 -81.9273 -144.199 -40.1018 59.1948 -9.64272 -147.202 -7.58529 8.08524 109.818 25.9842 -5.42983 9.90547 -15.5815 10.9379 61.1836 47.9543 179.188 -143.392 20.9346 -8.93301 104.818 -30.0371 -6.13041 26.0287 0.612278 2.32363 0.78846 12.9783 -90.4247 0.920264 1.41325 -0.775028 -10.7502 1.37778 -0.836484 -33.2911 1.58082 -0.314373 -13.2784 1.58083 -0.314376 89.4358 -17.9255 -113.763 5.30889 -14.4453 -58.4823 -18.7463 -41.2225 -23.5473 -16.6792 -2.33669 11.1754 -91.9503 -32.5341 70.5829 13.1297 17.7333 -83.4736 2.02542 27.3369 -1.2631 9.09113 1.55385 11.8728 18.8782 -2.74312 -1.18579 -0.705688 -2.29954 -0.430446 
36.4313 36.0029 6.19608 -145.05 -81.9907 -143.807 -39.8307 59.0458 -10.0302 -147.129 -7.87471 8.11815 109.863 26.1939 -5.08388 9.12323 -15.2947 9.82793 61.1545 47.7598 179.216 -143.368 20.9655 -8.96013 105.036 -30.2919 -6.2324 25.8423 0.663445 2.43024 0.777838 12.9608 -90.4423 0.955509 1.38534 -0.811073 -10.715 1.34831 -0.871274 -33.2555 1.56504 -0.357146 -13.2429 1.56505 -0.357137 89.3804 -17.7537 -113.998 3.96192 -15.306 -58.6204 -17.3158 -39.4212 -22.546 -16.4827 -2.23789 10.7281 -92.0455 -32.7963 70.5062 13.5318 17.8192 -83.4037 1.93546 25.8933 -1.37714 8.39846 1.22406 9.53495 18.7317 -2.63977 -0.822789 -0.725133 -2.31809 -0.742008 
